<svg width="3440" height="200" viewBox="0 0 3440 200" fill="none" xmlns="http://www.w3.org/2000/svg">
<g clip-path="url(#clip0_2009_49)">
<rect width="3440" height="200" fill="white"/>
<rect width="3440" height="200" fill="url(#paint0_linear_2009_49)"/>
<g filter="url(#filter0_ddd_2009_49)">
<path d="M1553.94 183.22C1551.3 183.34 1549.26 182.86 1547.82 181.78C1546.26 180.7 1545.72 178.66 1546.2 175.66C1546.2 175.3 1546.32 174.76 1546.56 174.04C1546.8 173.32 1547.1 172.84 1547.46 172.6C1547.34 175.6 1547.7 177.7 1548.54 178.9C1549.38 180.1 1550.76 180.7 1552.68 180.7C1557.36 180.7 1562.16 179.2 1567.08 176.2C1572.12 173.2 1577.1 169.18 1582.02 164.14C1580.82 163.78 1579.26 163.06 1577.34 161.98C1575.54 161.02 1574.16 160.24 1573.2 159.64C1568.4 156.16 1566 152.14 1566 147.58C1566 144.1 1567.56 140.32 1570.68 136.24C1573.8 132.16 1578.9 128.02 1585.98 123.82C1590.54 121.06 1595.82 118.6 1601.82 116.44C1607.82 114.28 1613.4 112.54 1618.56 111.22C1620.36 107.74 1622.1 104.32 1623.78 100.96C1625.46 97.6 1627.08 94.24 1628.64 90.88C1629.24 89.56 1630.32 87.04 1631.88 83.32C1633.44 79.6 1635.18 75.22 1637.1 70.18C1639.02 65.14 1640.82 59.8 1642.5 54.16C1644.3 48.4 1645.8 42.82 1647 37.42C1648.2 32.02 1648.8 27.22 1648.8 23.02C1648.8 18.94 1648.08 15.76 1646.64 13.48C1645.32 11.2 1642.92 10.06 1639.44 10.06H1639.26C1638.3 10.06 1637.82 9.75999 1637.82 9.15999C1637.82 8.55999 1638.42 8.13999 1639.62 7.89999C1645.38 7.29999 1649.4 8.67999 1651.68 12.04C1653.96 15.4 1655.1 19.84 1655.1 25.36C1655.1 26.32 1655.04 27.34 1654.92 28.42C1654.92 29.5 1654.86 30.64 1654.74 31.84C1655.46 32.44 1655.94 33.46 1656.18 34.9C1656.9 38.74 1657.62 43.78 1658.34 50.02C1659.18 56.26 1660.14 63.1 1661.22 70.54C1662.3 77.98 1663.56 85.54 1665 93.22C1666.56 100.78 1668.36 107.92 1670.4 114.64C1672.56 121.24 1675.08 126.82 1677.96 131.38C1678.56 132.34 1679.4 133.6 1680.48 135.16C1681.56 136.6 1682.88 137.92 1684.44 139.12C1686 140.32 1687.74 140.92 1689.66 140.92C1691.7 140.92 1693.8 140.08 1695.96 138.4C1697.88 136.84 1699.68 134.68 1701.36 131.92C1703.04 129.16 1704.6 126.22 1706.04 123.1C1706.76 121.78 1707.42 121.12 1708.02 121.12C1708.62 121.12 1709.04 121.48 1709.28 122.2C1709.64 122.8 1709.76 123.4 1709.64 124C1709.16 125.56 1708.14 127.42 1706.58 129.58C1705.14 131.62 1703.64 133.54 1702.08 135.34C1700.52 137.02 1699.26 138.22 1698.3 138.94C1696.14 140.62 1694.04 141.82 1692 142.54C1690.08 143.38 1688.28 143.8 1686.6 143.8C1682.64 143.8 1679.16 142.3 1676.16 139.3C1673.28 136.18 1670.76 132.94 1668.6 129.58C1665.6 124.78 1663.2 118.72 1661.4 111.4C1659.72 104.08 1658.4 96.16 1657.44 87.64C1656.48 79.12 1655.7 70.72 1655.1 62.44C1654.62 54.16 1654.08 46.6 1653.48 39.76C1652.04 46.48 1650.06 53.38 1647.54 60.46C1645.02 67.54 1642.44 74.08 1639.8 80.08C1637.28 85.96 1635.18 90.52 1633.5 93.76C1630.86 99.16 1627.98 104.56 1624.86 109.96C1630.38 108.64 1636.14 107.44 1642.14 106.36C1648.14 105.28 1653.42 104.26 1657.98 103.3H1658.52C1659 103.3 1659.24 103.48 1659.24 103.84C1659.24 104.2 1658.94 104.68 1658.34 105.28C1657.74 105.88 1656.96 106.3 1656 106.54C1650.84 107.5 1645.26 108.64 1639.26 109.96C1633.26 111.16 1627.62 112.48 1622.34 113.92C1616.82 123.4 1611.24 132.4 1605.6 140.92C1599.96 149.44 1593.78 157 1587.06 163.6C1591.62 165.04 1597.44 165.76 1604.52 165.76H1604.88C1605.84 165.76 1606.32 166 1606.32 166.48C1606.32 167.2 1605.6 167.56 1604.16 167.56C1600.8 167.68 1597.5 167.5 1594.26 167.02C1591.02 166.66 1588.02 166.06 1585.26 165.22C1579.98 170.38 1574.64 174.52 1569.24 177.64C1563.96 180.88 1558.86 182.74 1553.94 183.22ZM1583.82 162.34C1589.58 156.34 1595.16 149.32 1600.56 141.28C1606.08 133.24 1611.24 124.84 1616.04 116.08C1614.48 116.56 1612.86 117.1 1611.18 117.7C1609.5 118.3 1607.88 119.02 1606.32 119.86C1604.28 120.82 1601.52 122.2 1598.04 124C1594.56 125.8 1591.08 127.72 1587.6 129.76C1584.24 131.68 1581.66 133.42 1579.86 134.98C1577.46 137.14 1575.72 139.24 1574.64 141.28C1573.56 143.32 1573.02 145.3 1573.02 147.22C1573.02 148.9 1573.32 150.52 1573.92 152.08C1574.64 153.64 1575.48 155.14 1576.44 156.58C1577.04 157.3 1578.12 158.26 1579.68 159.46C1581.36 160.78 1582.74 161.74 1583.82 162.34ZM1734.47 170.62C1732.91 170.62 1731.41 170.02 1729.97 168.82C1728.65 167.62 1727.51 166.42 1726.55 165.22C1722.71 160.78 1719.47 154.9 1716.83 147.58C1714.31 140.26 1712.39 132.22 1711.07 123.46C1709.75 114.58 1709.09 105.58 1709.09 96.46C1709.09 87.94 1709.63 79.66 1710.71 71.62C1711.91 63.58 1713.71 56.26 1716.11 49.66C1718.51 43.06 1721.51 37.78 1725.11 33.82C1729.79 28.54 1734.29 25.9 1738.61 25.9C1741.25 25.9 1743.35 27.1 1744.91 29.5C1746.59 31.78 1747.43 35.44 1747.43 40.48C1747.43 45.28 1746.47 51.4 1744.55 58.84C1742.75 66.16 1739.63 74.92 1735.19 85.12C1733.63 88.48 1731.95 91.84 1730.15 95.2C1728.47 98.56 1726.67 102.1 1724.75 105.82C1724.03 107.26 1723.43 107.98 1722.95 107.98C1722.71 107.98 1722.59 107.74 1722.59 107.26C1722.59 106.3 1723.01 105.04 1723.85 103.48C1734.77 82.96 1740.23 62.56 1740.23 42.28C1740.23 34.24 1738.55 30.22 1735.19 30.22C1732.79 30.22 1729.97 32.56 1726.73 37.24C1722.29 43.84 1719.23 51.7 1717.55 60.82C1715.87 69.82 1715.03 78.94 1715.03 88.18C1715.03 95.14 1715.33 101.92 1715.93 108.52C1716.53 115 1717.25 120.88 1718.09 126.16C1718.45 128.44 1718.99 131.5 1719.71 135.34C1720.43 139.18 1721.39 143.2 1722.59 147.4C1723.79 151.72 1725.11 155.62 1726.55 159.1C1728.11 162.7 1729.79 165.28 1731.59 166.84C1732.07 167.2 1732.55 167.56 1733.03 167.92C1733.63 168.4 1734.29 168.7 1735.01 168.82C1736.09 168.82 1736.63 169.12 1736.63 169.72C1736.63 170.32 1735.91 170.62 1734.47 170.62ZM1756.06 81.88C1754.98 81.88 1754.2 81.34 1753.72 80.26C1753.36 79.06 1753.18 78.22 1753.18 77.74C1753.18 75.82 1753.72 74.02 1754.8 72.34C1756 70.54 1757.32 69.58 1758.76 69.46H1759.3C1760.74 69.46 1761.7 69.82 1762.18 70.54C1762.78 71.14 1763.08 71.92 1763.08 72.88C1763.08 74.68 1762.3 76.66 1760.74 78.82C1759.18 80.86 1757.62 81.88 1756.06 81.88ZM1746.88 146.32C1742.8 146.32 1740.04 144.76 1738.6 141.64C1737.16 138.52 1736.44 134.92 1736.44 130.84C1736.44 126.76 1736.86 122.5 1737.7 118.06C1738.66 113.5 1739.68 109.36 1740.76 105.64C1741.96 101.92 1742.86 99.28 1743.46 97.72C1744.78 94.96 1746.1 92.62 1747.42 90.7C1748.74 88.66 1750.18 87.64 1751.74 87.64C1752.82 87.64 1753.6 88.06 1754.08 88.9C1754.68 89.62 1754.98 90.58 1754.98 91.78C1754.98 94.18 1754.32 96.64 1753 99.16C1751.68 101.56 1750.48 103.84 1749.4 106C1747 110.92 1745.08 115.3 1743.64 119.14C1742.32 122.98 1741.66 127.78 1741.66 133.54C1741.66 137.26 1742.02 139.96 1742.74 141.64C1743.58 143.32 1744.72 144.16 1746.16 144.16C1748.08 144.16 1750.3 143.08 1752.82 140.92C1755.34 138.64 1757.92 135.64 1760.56 131.92C1763.2 128.2 1765.54 124.18 1767.58 119.86C1768.9 117.1 1769.92 115.72 1770.64 115.72C1771.12 115.72 1771.36 116.2 1771.36 117.16C1771.36 118.48 1770.82 120.4 1769.74 122.92C1768.78 125.32 1767.58 127.78 1766.14 130.3C1764.82 132.82 1763.56 134.8 1762.36 136.24C1760.32 138.88 1757.98 141.22 1755.34 143.26C1752.7 145.3 1749.88 146.32 1746.88 146.32ZM1782.71 144.34C1778.39 144.34 1774.61 141.82 1771.37 136.78C1768.25 131.62 1766.69 123.52 1766.69 112.48C1766.69 105.28 1767.59 99.52 1769.39 95.2C1771.19 90.76 1773.41 87.52 1776.05 85.48C1778.69 83.44 1781.21 82.42 1783.61 82.42C1786.01 82.42 1788.05 83.26 1789.73 84.94C1791.41 86.5 1792.25 88.78 1792.25 91.78C1792.25 94.66 1791.41 97.72 1789.73 100.96C1788.05 104.08 1786.01 106.96 1783.61 109.6C1781.33 112.12 1779.05 113.8 1776.77 114.64C1776.29 114.88 1775.69 115 1774.97 115C1774.49 115 1774.25 114.82 1774.25 114.46C1774.25 113.5 1775.21 112.42 1777.13 111.22C1779.53 109.54 1781.81 107.02 1783.97 103.66C1786.13 100.18 1787.21 97.12 1787.21 94.48C1787.21 92.92 1786.85 91.72 1786.13 90.88C1785.41 89.92 1784.57 89.44 1783.61 89.44C1781.81 89.44 1779.83 90.88 1777.67 93.76C1775.63 96.52 1774.13 101.32 1773.17 108.16C1772.93 110.08 1772.69 111.94 1772.45 113.74C1772.33 115.42 1772.27 117.1 1772.27 118.78C1772.27 125.5 1773.29 130.78 1775.33 134.62C1777.37 138.34 1780.07 140.2 1783.43 140.2C1786.31 140.2 1789.55 138.52 1793.15 135.16C1796.75 131.68 1800.29 126.28 1803.77 118.96C1804.61 117.04 1805.57 116.08 1806.65 116.08C1807.37 116.08 1807.73 116.56 1807.73 117.52C1807.73 118.36 1807.49 119.26 1807.01 120.22C1803.89 127.9 1800.11 133.84 1795.67 138.04C1791.23 142.24 1786.91 144.34 1782.71 144.34ZM1826.32 151C1822.48 151 1819.54 149.2 1817.5 145.6C1815.46 142.12 1814.44 138.28 1814.44 134.08C1814.44 130.12 1815.1 125.98 1816.42 121.66C1817.74 117.34 1819.36 113.08 1821.28 108.88C1823.32 104.68 1825.42 100.84 1827.58 97.36C1825.42 98.2 1823.38 98.62 1821.46 98.62C1820.5 98.62 1819.66 98.5 1818.94 98.26C1818.22 98.02 1817.62 97.84 1817.14 97.72C1816.54 99.16 1815.46 101.56 1813.9 104.92C1812.46 108.28 1810.9 111.82 1809.22 115.54C1807.66 119.14 1806.28 122.2 1805.08 124.72C1803.16 128.8 1801.48 130.84 1800.04 130.84C1799.32 130.84 1798.96 130.36 1798.96 129.4C1798.96 128.68 1799.26 127.72 1799.86 126.52C1802.62 121.36 1805.2 116.26 1807.6 111.22C1810.12 106.18 1812.4 101.32 1814.44 96.64C1814.2 96.04 1813.96 95.26 1813.72 94.3C1813.48 93.22 1813.36 92.08 1813.36 90.88C1813.36 89.56 1813.48 88.18 1813.72 86.74C1814.08 85.18 1814.56 83.68 1815.16 82.24C1815.52 81.4 1816.18 80.2 1817.14 78.64C1818.1 76.96 1819.18 75.46 1820.38 74.14C1821.58 72.7 1822.72 71.98 1823.8 71.98C1825.84 71.98 1826.86 73.06 1826.86 75.22C1826.86 77.26 1826.2 79.6 1824.88 82.24C1823.68 84.88 1822.42 87.34 1821.1 89.62C1819.78 91.78 1819.12 93.4 1819.12 94.48C1819.12 95.44 1819.6 95.92 1820.56 95.92C1821.88 95.92 1823.5 95.26 1825.42 93.94C1827.46 92.5 1829.08 91.18 1830.28 89.98C1830.88 89.38 1831.84 88.48 1833.16 87.28C1834.48 85.96 1835.74 85.3 1836.94 85.3C1838.14 85.3 1838.92 85.66 1839.28 86.38C1839.76 87.1 1840 87.94 1840 88.9C1840 89.98 1839.52 91.36 1838.56 93.04C1837.6 94.6 1836.46 96.16 1835.14 97.72C1833.94 99.28 1832.92 100.6 1832.08 101.68C1830.4 104.2 1828.48 107.38 1826.32 111.22C1824.16 115.06 1822.3 119.2 1820.74 123.64C1819.18 127.96 1818.4 132.1 1818.4 136.06C1818.4 138.7 1819.06 141.46 1820.38 144.34C1821.7 147.22 1823.5 148.66 1825.78 148.66C1827.82 148.66 1829.98 147.58 1832.26 145.42C1834.66 143.26 1836.88 140.68 1838.92 137.68C1841.08 134.68 1842.94 131.8 1844.5 129.04C1846.18 126.28 1847.32 124.36 1847.92 123.28C1848.16 122.68 1848.58 121.96 1849.18 121.12C1849.78 120.16 1850.5 119.68 1851.34 119.68C1852.06 119.68 1852.42 120.04 1852.42 120.76C1852.42 121.36 1852.24 122.08 1851.88 122.92C1851.64 123.64 1851.4 124.3 1851.16 124.9C1850.08 127.42 1848.76 130.06 1847.2 132.82C1845.64 135.58 1844.56 137.44 1843.96 138.4C1842.28 141.16 1839.76 143.92 1836.4 146.68C1833.16 149.56 1829.8 151 1826.32 151ZM1867.51 81.88C1866.43 81.88 1865.65 81.34 1865.17 80.26C1864.81 79.06 1864.63 78.22 1864.63 77.74C1864.63 75.82 1865.17 74.02 1866.25 72.34C1867.45 70.54 1868.77 69.58 1870.21 69.46H1870.75C1872.19 69.46 1873.15 69.82 1873.63 70.54C1874.23 71.14 1874.53 71.92 1874.53 72.88C1874.53 74.68 1873.75 76.66 1872.19 78.82C1870.63 80.86 1869.07 81.88 1867.51 81.88ZM1858.33 146.32C1854.25 146.32 1851.49 144.76 1850.05 141.64C1848.61 138.52 1847.89 134.92 1847.89 130.84C1847.89 126.76 1848.31 122.5 1849.15 118.06C1850.11 113.5 1851.13 109.36 1852.21 105.64C1853.41 101.92 1854.31 99.28 1854.91 97.72C1856.23 94.96 1857.55 92.62 1858.87 90.7C1860.19 88.66 1861.63 87.64 1863.19 87.64C1864.27 87.64 1865.05 88.06 1865.53 88.9C1866.13 89.62 1866.43 90.58 1866.43 91.78C1866.43 94.18 1865.77 96.64 1864.45 99.16C1863.13 101.56 1861.93 103.84 1860.85 106C1858.45 110.92 1856.53 115.3 1855.09 119.14C1853.77 122.98 1853.11 127.78 1853.11 133.54C1853.11 137.26 1853.47 139.96 1854.19 141.64C1855.03 143.32 1856.17 144.16 1857.61 144.16C1859.53 144.16 1861.75 143.08 1864.27 140.92C1866.79 138.64 1869.37 135.64 1872.01 131.92C1874.65 128.2 1876.99 124.18 1879.03 119.86C1880.35 117.1 1881.37 115.72 1882.09 115.72C1882.57 115.72 1882.81 116.2 1882.81 117.16C1882.81 118.48 1882.27 120.4 1881.19 122.92C1880.23 125.32 1879.03 127.78 1877.59 130.3C1876.27 132.82 1875.01 134.8 1873.81 136.24C1871.77 138.88 1869.43 141.22 1866.79 143.26C1864.15 145.3 1861.33 146.32 1858.33 146.32Z" fill="#CBFFA8"/>
</g>
<g filter="url(#filter1_ddd_2009_49)">
<path d="M1893.61 145.282C1892.78 145.509 1891.91 145.712 1891 145.888C1891.88 145.669 1892.75 145.468 1893.61 145.282C1907 141.613 1909.8 131.515 1921.66 121.344C1933.49 111.192 1955.25 108.192 1959.64 123.984C1963.21 136.87 1945.9 144.81 1937.28 144.378C1920.72 143.549 1908.17 142.151 1893.61 145.282Z" fill="#CBFFA8"/>
</g>
<g filter="url(#filter2_ddd_2009_49)">
<path d="M1543.01 151.214C1543.75 151.647 1544.51 152.126 1545.27 152.656C1544.5 152.182 1543.75 151.701 1543.01 151.214C1531.02 144.221 1521.85 149.287 1506.3 147.939C1490.77 146.594 1473.39 133.15 1481.58 118.96C1488.27 107.38 1506.06 114.19 1511.79 120.648C1522.79 133.061 1530.59 143.008 1543.01 151.214Z" fill="#CBFFA8"/>
</g>
<g filter="url(#filter3_ddd_2009_49)">
<path d="M1918.79 111.312C1918.46 111.549 1918.11 111.782 1917.74 112.01C1918.09 111.769 1918.44 111.536 1918.79 111.312C1924.09 107.485 1923.66 102.57 1927.21 96.1286C1930.76 89.6994 1939.86 84.7855 1944.39 91.0252C1948.09 96.1169 1941.76 102.475 1937.89 103.707C1930.46 106.074 1924.69 107.529 1918.79 111.312Z" fill="#CBFFA8"/>
</g>
<g filter="url(#filter4_ddd_2009_49)">
<path d="M1530.37 164.323C1530.77 164.336 1531.19 164.365 1531.63 164.412C1531.2 164.389 1530.78 164.359 1530.37 164.323C1523.84 164.119 1521.18 168.273 1514.44 171.206C1507.71 174.133 1497.51 172.467 1497.72 164.755C1497.89 158.462 1506.78 157.289 1510.6 158.678C1517.93 161.346 1523.39 163.714 1530.37 164.323Z" fill="#CBFFA8"/>
</g>
<g filter="url(#filter5_ddd_2009_49)">
<path d="M1539.9 133.359C1540.07 133.832 1540.22 134.329 1540.35 134.854C1540.19 134.352 1540.04 133.854 1539.9 133.359C1537.27 125.729 1531.33 124.513 1524.99 118.04C1518.67 111.579 1516.11 99.0517 1525.07 95.8528C1532.38 93.2425 1537.63 102.981 1537.71 108.008C1537.86 117.671 1537.54 125.026 1539.9 133.359Z" fill="#CBFFA8"/>
</g>
<g filter="url(#filter6_ddd_2009_49)">
<path d="M1897.24 158.4C1896.75 158.302 1896.24 158.181 1895.72 158.034C1896.23 158.149 1896.74 158.271 1897.24 158.4C1905.15 159.984 1909.2 155.466 1917.98 153.27C1926.75 151.078 1938.84 155.194 1937.07 164.548C1935.62 172.181 1924.57 171.793 1920.2 169.321C1911.79 164.57 1905.62 160.569 1897.24 158.4Z" fill="#CBFFA8"/>
</g>
</g>
<defs>
<filter id="filter0_ddd_2009_49" x="1545.48" y="7" width="340.323" height="179.4" filterUnits="userSpaceOnUse" color-interpolation-filters="sRGB">
<feFlood flood-opacity="0" result="BackgroundImageFix"/>
<feColorMatrix in="SourceAlpha" type="matrix" values="0 0 0 0 0 0 0 0 0 0 0 0 0 0 0 0 0 0 127 0" result="hardAlpha"/>
<feOffset dx="1" dy="1"/>
<feComposite in2="hardAlpha" operator="out"/>
<feColorMatrix type="matrix" values="0 0 0 0 0.356863 0 0 0 0 0.627451 0 0 0 0 0.176471 0 0 0 1 0"/>
<feBlend mode="normal" in2="BackgroundImageFix" result="effect1_dropShadow_2009_49"/>
<feColorMatrix in="SourceAlpha" type="matrix" values="0 0 0 0 0 0 0 0 0 0 0 0 0 0 0 0 0 0 127 0" result="hardAlpha"/>
<feOffset dx="2" dy="2"/>
<feComposite in2="hardAlpha" operator="out"/>
<feColorMatrix type="matrix" values="0 0 0 0 0.356863 0 0 0 0 0.627451 0 0 0 0 0.176471 0 0 0 1 0"/>
<feBlend mode="normal" in2="effect1_dropShadow_2009_49" result="effect2_dropShadow_2009_49"/>
<feColorMatrix in="SourceAlpha" type="matrix" values="0 0 0 0 0 0 0 0 0 0 0 0 0 0 0 0 0 0 127 0" result="hardAlpha"/>
<feOffset dx="3" dy="3"/>
<feComposite in2="hardAlpha" operator="out"/>
<feColorMatrix type="matrix" values="0 0 0 0 0.356863 0 0 0 0 0.627451 0 0 0 0 0.176471 0 0 0 1 0"/>
<feBlend mode="normal" in2="effect2_dropShadow_2009_49" result="effect3_dropShadow_2009_49"/>
<feBlend mode="normal" in="SourceGraphic" in2="effect3_dropShadow_2009_49" result="shape"/>
</filter>
<filter id="filter1_ddd_2009_49" x="1891" y="112.934" width="72.1155" height="35.9537" filterUnits="userSpaceOnUse" color-interpolation-filters="sRGB">
<feFlood flood-opacity="0" result="BackgroundImageFix"/>
<feColorMatrix in="SourceAlpha" type="matrix" values="0 0 0 0 0 0 0 0 0 0 0 0 0 0 0 0 0 0 127 0" result="hardAlpha"/>
<feOffset dx="1" dy="1"/>
<feComposite in2="hardAlpha" operator="out"/>
<feColorMatrix type="matrix" values="0 0 0 0 0.356863 0 0 0 0 0.627451 0 0 0 0 0.176471 0 0 0 1 0"/>
<feBlend mode="normal" in2="BackgroundImageFix" result="effect1_dropShadow_2009_49"/>
<feColorMatrix in="SourceAlpha" type="matrix" values="0 0 0 0 0 0 0 0 0 0 0 0 0 0 0 0 0 0 127 0" result="hardAlpha"/>
<feOffset dx="2" dy="2"/>
<feComposite in2="hardAlpha" operator="out"/>
<feColorMatrix type="matrix" values="0 0 0 0 0.356863 0 0 0 0 0.627451 0 0 0 0 0.176471 0 0 0 1 0"/>
<feBlend mode="normal" in2="effect1_dropShadow_2009_49" result="effect2_dropShadow_2009_49"/>
<feColorMatrix in="SourceAlpha" type="matrix" values="0 0 0 0 0 0 0 0 0 0 0 0 0 0 0 0 0 0 127 0" result="hardAlpha"/>
<feOffset dx="3" dy="3"/>
<feComposite in2="hardAlpha" operator="out"/>
<feColorMatrix type="matrix" values="0 0 0 0 0.356863 0 0 0 0 0.627451 0 0 0 0 0.176471 0 0 0 1 0"/>
<feBlend mode="normal" in2="effect2_dropShadow_2009_49" result="effect3_dropShadow_2009_49"/>
<feBlend mode="normal" in="SourceGraphic" in2="effect3_dropShadow_2009_49" result="shape"/>
</filter>
<filter id="filter2_ddd_2009_49" x="1479.48" y="112.69" width="68.7893" height="42.9661" filterUnits="userSpaceOnUse" color-interpolation-filters="sRGB">
<feFlood flood-opacity="0" result="BackgroundImageFix"/>
<feColorMatrix in="SourceAlpha" type="matrix" values="0 0 0 0 0 0 0 0 0 0 0 0 0 0 0 0 0 0 127 0" result="hardAlpha"/>
<feOffset dx="1" dy="1"/>
<feComposite in2="hardAlpha" operator="out"/>
<feColorMatrix type="matrix" values="0 0 0 0 0.356863 0 0 0 0 0.627451 0 0 0 0 0.176471 0 0 0 1 0"/>
<feBlend mode="normal" in2="BackgroundImageFix" result="effect1_dropShadow_2009_49"/>
<feColorMatrix in="SourceAlpha" type="matrix" values="0 0 0 0 0 0 0 0 0 0 0 0 0 0 0 0 0 0 127 0" result="hardAlpha"/>
<feOffset dx="2" dy="2"/>
<feComposite in2="hardAlpha" operator="out"/>
<feColorMatrix type="matrix" values="0 0 0 0 0.356863 0 0 0 0 0.627451 0 0 0 0 0.176471 0 0 0 1 0"/>
<feBlend mode="normal" in2="effect1_dropShadow_2009_49" result="effect2_dropShadow_2009_49"/>
<feColorMatrix in="SourceAlpha" type="matrix" values="0 0 0 0 0 0 0 0 0 0 0 0 0 0 0 0 0 0 127 0" result="hardAlpha"/>
<feOffset dx="3" dy="3"/>
<feComposite in2="hardAlpha" operator="out"/>
<feColorMatrix type="matrix" values="0 0 0 0 0.356863 0 0 0 0 0.627451 0 0 0 0 0.176471 0 0 0 1 0"/>
<feBlend mode="normal" in2="effect2_dropShadow_2009_49" result="effect3_dropShadow_2009_49"/>
<feBlend mode="normal" in="SourceGraphic" in2="effect3_dropShadow_2009_49" result="shape"/>
</filter>
<filter id="filter3_ddd_2009_49" x="1917.74" y="88.1449" width="30.7739" height="26.8654" filterUnits="userSpaceOnUse" color-interpolation-filters="sRGB">
<feFlood flood-opacity="0" result="BackgroundImageFix"/>
<feColorMatrix in="SourceAlpha" type="matrix" values="0 0 0 0 0 0 0 0 0 0 0 0 0 0 0 0 0 0 127 0" result="hardAlpha"/>
<feOffset dx="1" dy="1"/>
<feComposite in2="hardAlpha" operator="out"/>
<feColorMatrix type="matrix" values="0 0 0 0 0.356863 0 0 0 0 0.627451 0 0 0 0 0.176471 0 0 0 1 0"/>
<feBlend mode="normal" in2="BackgroundImageFix" result="effect1_dropShadow_2009_49"/>
<feColorMatrix in="SourceAlpha" type="matrix" values="0 0 0 0 0 0 0 0 0 0 0 0 0 0 0 0 0 0 127 0" result="hardAlpha"/>
<feOffset dx="2" dy="2"/>
<feComposite in2="hardAlpha" operator="out"/>
<feColorMatrix type="matrix" values="0 0 0 0 0.356863 0 0 0 0 0.627451 0 0 0 0 0.176471 0 0 0 1 0"/>
<feBlend mode="normal" in2="effect1_dropShadow_2009_49" result="effect2_dropShadow_2009_49"/>
<feColorMatrix in="SourceAlpha" type="matrix" values="0 0 0 0 0 0 0 0 0 0 0 0 0 0 0 0 0 0 127 0" result="hardAlpha"/>
<feOffset dx="3" dy="3"/>
<feComposite in2="hardAlpha" operator="out"/>
<feColorMatrix type="matrix" values="0 0 0 0 0.356863 0 0 0 0 0.627451 0 0 0 0 0.176471 0 0 0 1 0"/>
<feBlend mode="normal" in2="effect2_dropShadow_2009_49" result="effect3_dropShadow_2009_49"/>
<feBlend mode="normal" in="SourceGraphic" in2="effect3_dropShadow_2009_49" result="shape"/>
</filter>
<filter id="filter4_ddd_2009_49" x="1497.72" y="158.156" width="36.9138" height="17.4054" filterUnits="userSpaceOnUse" color-interpolation-filters="sRGB">
<feFlood flood-opacity="0" result="BackgroundImageFix"/>
<feColorMatrix in="SourceAlpha" type="matrix" values="0 0 0 0 0 0 0 0 0 0 0 0 0 0 0 0 0 0 127 0" result="hardAlpha"/>
<feOffset dx="1" dy="1"/>
<feComposite in2="hardAlpha" operator="out"/>
<feColorMatrix type="matrix" values="0 0 0 0 0.356863 0 0 0 0 0.627451 0 0 0 0 0.176471 0 0 0 1 0"/>
<feBlend mode="normal" in2="BackgroundImageFix" result="effect1_dropShadow_2009_49"/>
<feColorMatrix in="SourceAlpha" type="matrix" values="0 0 0 0 0 0 0 0 0 0 0 0 0 0 0 0 0 0 127 0" result="hardAlpha"/>
<feOffset dx="2" dy="2"/>
<feComposite in2="hardAlpha" operator="out"/>
<feColorMatrix type="matrix" values="0 0 0 0 0.356863 0 0 0 0 0.627451 0 0 0 0 0.176471 0 0 0 1 0"/>
<feBlend mode="normal" in2="effect1_dropShadow_2009_49" result="effect2_dropShadow_2009_49"/>
<feColorMatrix in="SourceAlpha" type="matrix" values="0 0 0 0 0 0 0 0 0 0 0 0 0 0 0 0 0 0 127 0" result="hardAlpha"/>
<feOffset dx="3" dy="3"/>
<feComposite in2="hardAlpha" operator="out"/>
<feColorMatrix type="matrix" values="0 0 0 0 0.356863 0 0 0 0 0.627451 0 0 0 0 0.176471 0 0 0 1 0"/>
<feBlend mode="normal" in2="effect2_dropShadow_2009_49" result="effect3_dropShadow_2009_49"/>
<feBlend mode="normal" in="SourceGraphic" in2="effect3_dropShadow_2009_49" result="shape"/>
</filter>
<filter id="filter5_ddd_2009_49" x="1519.26" y="95.4163" width="24.092" height="42.4373" filterUnits="userSpaceOnUse" color-interpolation-filters="sRGB">
<feFlood flood-opacity="0" result="BackgroundImageFix"/>
<feColorMatrix in="SourceAlpha" type="matrix" values="0 0 0 0 0 0 0 0 0 0 0 0 0 0 0 0 0 0 127 0" result="hardAlpha"/>
<feOffset dx="1" dy="1"/>
<feComposite in2="hardAlpha" operator="out"/>
<feColorMatrix type="matrix" values="0 0 0 0 0.356863 0 0 0 0 0.627451 0 0 0 0 0.176471 0 0 0 1 0"/>
<feBlend mode="normal" in2="BackgroundImageFix" result="effect1_dropShadow_2009_49"/>
<feColorMatrix in="SourceAlpha" type="matrix" values="0 0 0 0 0 0 0 0 0 0 0 0 0 0 0 0 0 0 127 0" result="hardAlpha"/>
<feOffset dx="2" dy="2"/>
<feComposite in2="hardAlpha" operator="out"/>
<feColorMatrix type="matrix" values="0 0 0 0 0.356863 0 0 0 0 0.627451 0 0 0 0 0.176471 0 0 0 1 0"/>
<feBlend mode="normal" in2="effect1_dropShadow_2009_49" result="effect2_dropShadow_2009_49"/>
<feColorMatrix in="SourceAlpha" type="matrix" values="0 0 0 0 0 0 0 0 0 0 0 0 0 0 0 0 0 0 127 0" result="hardAlpha"/>
<feOffset dx="3" dy="3"/>
<feComposite in2="hardAlpha" operator="out"/>
<feColorMatrix type="matrix" values="0 0 0 0 0.356863 0 0 0 0 0.627451 0 0 0 0 0.176471 0 0 0 1 0"/>
<feBlend mode="normal" in2="effect2_dropShadow_2009_49" result="effect3_dropShadow_2009_49"/>
<feBlend mode="normal" in="SourceGraphic" in2="effect3_dropShadow_2009_49" result="shape"/>
</filter>
<filter id="filter6_ddd_2009_49" x="1895.72" y="152.693" width="44.5247" height="21.217" filterUnits="userSpaceOnUse" color-interpolation-filters="sRGB">
<feFlood flood-opacity="0" result="BackgroundImageFix"/>
<feColorMatrix in="SourceAlpha" type="matrix" values="0 0 0 0 0 0 0 0 0 0 0 0 0 0 0 0 0 0 127 0" result="hardAlpha"/>
<feOffset dx="1" dy="1"/>
<feComposite in2="hardAlpha" operator="out"/>
<feColorMatrix type="matrix" values="0 0 0 0 0.356863 0 0 0 0 0.627451 0 0 0 0 0.176471 0 0 0 1 0"/>
<feBlend mode="normal" in2="BackgroundImageFix" result="effect1_dropShadow_2009_49"/>
<feColorMatrix in="SourceAlpha" type="matrix" values="0 0 0 0 0 0 0 0 0 0 0 0 0 0 0 0 0 0 127 0" result="hardAlpha"/>
<feOffset dx="2" dy="2"/>
<feComposite in2="hardAlpha" operator="out"/>
<feColorMatrix type="matrix" values="0 0 0 0 0.356863 0 0 0 0 0.627451 0 0 0 0 0.176471 0 0 0 1 0"/>
<feBlend mode="normal" in2="effect1_dropShadow_2009_49" result="effect2_dropShadow_2009_49"/>
<feColorMatrix in="SourceAlpha" type="matrix" values="0 0 0 0 0 0 0 0 0 0 0 0 0 0 0 0 0 0 127 0" result="hardAlpha"/>
<feOffset dx="3" dy="3"/>
<feComposite in2="hardAlpha" operator="out"/>
<feColorMatrix type="matrix" values="0 0 0 0 0.356863 0 0 0 0 0.627451 0 0 0 0 0.176471 0 0 0 1 0"/>
<feBlend mode="normal" in2="effect2_dropShadow_2009_49" result="effect3_dropShadow_2009_49"/>
<feBlend mode="normal" in="SourceGraphic" in2="effect3_dropShadow_2009_49" result="shape"/>
</filter>
<linearGradient id="paint0_linear_2009_49" x1="1720" y1="200" x2="1720" y2="0" gradientUnits="userSpaceOnUse">
<stop stop-color="#511864"/>
<stop offset="1" stop-color="#A11692"/>
</linearGradient>
<clipPath id="clip0_2009_49">
<rect width="3440" height="200" fill="white"/>
</clipPath>
</defs>
</svg>
